<svg width="28" height="23" viewBox="0 0 28 23" fill="none" xmlns="http://www.w3.org/2000/svg">
<path d="M26.0293 8.45605H20.2712L15.006 0.570246C14.7776 0.233657 14.3929 0.0413208 14.0082 0.0413208C13.6236 0.0413208 13.2389 0.233657 13.0105 0.582267L7.74528 8.45605H1.9872C1.32604 8.45605 0.785095 8.99699 0.785095 9.65815C0.785095 9.76634 0.785095 9.87453 0.833179 9.98272L3.88652 21.1262C4.16301 22.136 5.08863 22.8813 6.19456 22.8813H21.8219C22.9278 22.8813 23.8535 22.136 24.142 21.1262L27.1953 9.98272L27.2314 9.65815C27.2314 8.99699 26.6904 8.45605 26.0293 8.45605ZM14.0082 3.40721L17.3741 8.45605H10.6423L14.0082 3.40721ZM21.8219 20.4771H6.19456L3.56195 10.8603H24.4665L21.8219 20.4771ZM14.0082 13.2645C12.6859 13.2645 11.604 14.3464 11.604 15.6687C11.604 16.991 12.6859 18.0729 14.0082 18.0729C15.3306 18.0729 16.4124 16.991 16.4124 15.6687C16.4124 14.3464 15.3306 13.2645 14.0082 13.2645Z" fill="#F5F5F5"/>
</svg>
