<svg width="28" height="25" viewBox="0 0 28 25" fill="none" xmlns="http://www.w3.org/2000/svg">
<path d="M27.4145 18.111L24.7036 20.6913L27.4145 23.2717L25.6073 25L22.9091 22.4075L20.2109 25L18.4164 23.2717L21.1145 20.6913L18.4164 18.111L20.2109 16.3948L22.9091 18.9752L25.6073 16.3827L27.4145 18.111ZM14 13.3885C12.6 13.3885 11.4545 14.4839 11.4545 15.8228C11.4545 17.1616 12.6 18.2571 14 18.2571C15.4 18.2571 16.5455 17.1616 16.5455 15.8228C16.5455 14.4839 15.4 13.3885 14 13.3885ZM15.7182 23.1256H5.72727C4.55636 23.1256 3.57636 22.371 3.28364 21.3486L0.050909 10.0657C-4.74128e-08 9.95618 0 9.84664 0 9.7371C0 9.06767 0.572727 8.51996 1.27273 8.51996H7.36909L12.9436 0.547712C13.1855 0.194742 13.5927 0 14 0C14.4073 0 14.8145 0.194742 15.0564 0.53554L20.6309 8.51996H26.7273C27.4273 8.51996 28 9.06767 28 9.7371L27.9618 10.0657L26.7273 14.3744C26.0018 13.9971 25.1873 13.6806 24.3345 13.5224L25.0727 10.9542H2.94L5.72727 20.6913H15.2727C15.2727 21.5433 15.4382 22.3588 15.7182 23.1256ZM10.4364 8.51996H17.5636L14 3.40798L10.4364 8.51996Z" fill="#DE0A0A"/>
</svg>
