<svg width="25" height="25" viewBox="0 0 25 25" fill="none" xmlns="http://www.w3.org/2000/svg">
<path d="M12.5 0C5.45 0 0 5.1625 0 12.125C0 15.7625 1.4875 18.925 3.925 21.0875C4.125 21.25 4.25 21.525 4.2625 21.8L4.325 24.025C4.375 24.7375 5.0875 25.2 5.7375 24.9125L8.2125 23.825C8.425 23.75 8.6625 23.7125 8.875 23.75C10 24.0875 11.25 24.25 12.5 24.25C19.55 24.25 25 19.0875 25 12.125C25 5.1625 19.55 0 12.5 0ZM20 9.325L16.3375 15.1625C15.75 16.075 14.5 16.3125 13.625 15.625L10.7 13.4625C10.4375 13.2625 10.0625 13.2625 9.8 13.4625L5.85 16.4625C5.325 16.875 4.6375 16.25 5 15.675L8.6625 9.8375C9.25 8.925 10.5 8.6875 11.375 9.3375L14.3 11.5375C14.575 11.7375 14.9375 11.7375 15.2 11.5375L19.15 8.5375C19.675 8.125 20.3625 8.75 20 9.325Z" fill="#DE0A0A"/>
</svg>
