<svg width="25" height="26" viewBox="0 0 25 26" fill="none" xmlns="http://www.w3.org/2000/svg">
<path d="M12.5502 0C5.69095 0 0.100503 5.59045 0.100503 12.4497C0.100503 14.6482 0.678392 16.7839 1.75879 18.6683L0 25.1256L6.59548 23.392C8.41708 24.3844 10.4648 24.9121 12.5502 24.9121C19.4095 24.9121 25 19.3216 25 12.4623C25 9.13316 23.706 6.00502 21.3568 3.65578C19.0075 1.29397 15.8794 0 12.5502 0ZM12.5628 2.09799C15.3266 2.09799 17.9146 3.17839 19.8744 5.13819C21.8216 7.09799 22.902 9.69849 22.902 12.4623C22.902 18.1658 18.2538 22.8015 12.5502 22.8015C10.691 22.8015 8.86935 22.3116 7.28643 21.3568L6.90955 21.1432L2.98995 22.1734L4.03266 18.3543L3.78141 17.9523C2.75126 16.3317 2.19849 14.4095 2.19849 12.4497C2.21106 6.74623 6.84673 2.09799 12.5628 2.09799ZM8.1407 6.69598C7.9397 6.69598 7.6005 6.77136 7.31156 7.08543C7.03517 7.3995 6.21859 8.16583 6.21859 9.68593C6.21859 11.2186 7.33668 12.6884 7.47487 12.902C7.65075 13.1156 9.68593 16.2563 12.8141 17.5879C13.5553 17.9271 14.1332 18.1156 14.5854 18.2538C15.3266 18.4925 16.005 18.4548 16.5452 18.3794C17.1482 18.2915 18.3794 17.6256 18.6432 16.897C18.907 16.1683 18.907 15.5528 18.8317 15.4146C18.7437 15.2889 18.5427 15.2136 18.2286 15.0754C17.9146 14.8995 16.3819 14.1457 16.1055 14.0452C15.8166 13.9447 15.6407 13.8945 15.402 14.196C15.201 14.51 14.598 15.2136 14.4221 15.4146C14.2337 15.6281 14.0578 15.6533 13.7563 15.5025C13.4296 15.3392 12.4246 15.0126 11.2437 13.9573C10.3141 13.1281 9.69849 12.1106 9.51005 11.7965C9.35929 11.495 9.49749 11.3065 9.64824 11.1683C9.78643 11.0301 9.98744 10.804 10.1131 10.6156C10.2764 10.4397 10.3266 10.3015 10.4271 10.1005C10.5276 9.88693 10.4774 9.71105 10.402 9.5603C10.3266 9.42211 9.69849 7.86432 9.43467 7.24874C9.18342 6.64573 8.93216 6.7211 8.73115 6.70854C8.55527 6.70854 8.35427 6.69598 8.1407 6.69598Z" fill="#DE0A0A"/>
</svg>
